Coordinates
version=1
nRows=17
nColumns=24
inDegrees=yes

Units are S.I. units (second, meters, Newtons, ...)
Angles are in degrees.

endheader
time	pelvis_tilt	pelvis_list	pelvis_rotation	pelvis_tx	pelvis_ty	pelvis_tz	hip_flexion_r	hip_adduction_r	hip_rotation_r	knee_angle_r	ankle_angle_r	subtalar_angle_r	mtp_angle_r	hip_flexion_l	hip_adduction_l	hip_rotation_l	knee_angle_l	ankle_angle_l	subtalar_angle_l	mtp_angle_l	lumbar_extension	lumbar_bending	lumbar_rotation
      0.80050000	      5.07031744	     -2.35775537	     -2.03401011	     -0.46585473	      1.07745584	      0.34614687	      3.62570774	      7.57424684	     -3.05271592	    -11.58052922	      0.02468873	     -8.72690984	      1.83724250	      7.91514204	     -4.66380464	     -4.62133381	    -65.74870895	     -4.19810204	     -3.31174451	      6.55630752	     -1.38914666	      6.25855311	     -1.07630888
      0.80466667	      5.05906937	     -2.27000527	     -2.08375731	     -0.46086119	      1.07802756	      0.34637705	      3.28110986	      7.49230452	     -2.94228338	    -11.47770284	      0.23480243	     -8.82345247	      1.85067206	      8.54006861	     -4.54296131	     -4.44451792	    -65.70114030	     -3.48552765	     -3.35904447	      6.52432027	     -1.40127188	      6.18053209	     -0.96260636
      0.80883333	      5.06527094	     -2.20478661	     -2.09144360	     -0.45582954	      1.07860591	      0.34669574	      2.88696187	      7.45150298	     -2.76660612	    -11.29327243	      0.35709316	     -8.84219833	      1.85868382	      9.13895757	     -4.45627175	     -4.24429337	    -65.58116107	     -3.06421218	     -3.39511461	      6.50296807	     -1.45562415	      6.04894328	     -0.87667924
      0.81300000	      5.07444160	     -2.12352494	     -2.15689438	     -0.45083688	      1.07917286	      0.34698723	      2.50957974	      7.38193202	     -2.61662212	    -11.17638988	      0.55775443	     -8.95225398	      1.86920259	      9.70327031	     -4.34264452	     -4.08457469	    -65.39187112	     -2.36573258	     -3.40057147	      6.46372561	     -1.50284084	      5.96366803	     -0.75172011
      0.81716667	      5.08482251	     -2.05134009	     -2.20153519	     -0.44579535	      1.07973114	      0.34730537	      2.11111748	      7.32836748	     -2.43739376	    -11.00813706	      0.70848740	     -9.02670172	      1.87789310	     10.25153673	     -4.24013154	     -3.91869607	    -65.13990578	     -1.81017425	     -3.37864978	      6.41792170	     -1.56123443	      5.85293722	     -0.62572079
      0.82133333	      5.10465547	     -1.99536895	     -2.21026828	     -0.44080537	      1.08026521	      0.34760166	      1.69582779	      7.29542270	     -2.25098836	    -10.81589210	      0.81978821	     -9.05238431	      1.88189288	     10.78912222	     -4.15039279	     -3.71915591	    -64.83000721	     -1.42416597	     -3.42782188	      6.39494005	     -1.61695921	      5.72836092	     -0.54605183
      0.82550000	      5.12104175	     -1.92250403	     -2.25232618	     -0.43579976	      1.08078439	      0.34787176	      1.28727151	      7.23626154	     -2.07487106	    -10.63753029	      0.97808197	     -9.12835254	      1.88468646	     11.30100576	     -4.03493169	     -3.55705240	    -64.45540162	     -0.89954755	     -3.49474354	      6.37058485	     -1.66649092	      5.60825424	     -0.45729987
      0.82966667	      5.13615748	     -1.84884351	     -2.31235867	     -0.43078887	      1.08128803	      0.34816638	      0.87960467	      7.17683447	     -1.88877567	    -10.46063972	      1.13741060	     -9.21771096	      1.88602612	     11.79214097	     -3.91904938	     -3.41880835	    -64.02103835	     -0.36119129	     -3.53572232	      6.34084615	     -1.72002941	      5.49541271	     -0.35741498
      0.83383333	      5.15237679	     -1.77944491	     -2.36930184	     -0.42579742	      1.08176644	      0.34844429	      0.46818482	      7.12153623	     -1.69706139	    -10.27427437	      1.28050427	     -9.31030032	      1.88551212	     12.26613824	     -3.80425888	     -3.28017800	    -63.52515806	      0.12480636	     -3.57156196	      6.30841562	     -1.77660658	      5.39794938	     -0.25771708
      0.83800000	      5.16965245	     -1.71324558	     -2.42670218	     -0.42079432	      1.08221811	      0.34870961	      0.05082244	      7.06736488	     -1.50488032	    -10.08097082	      1.41643953	     -9.40411423	      1.88346083	     12.71950832	     -3.69080070	     -3.14796999	    -62.97014422	      0.58336755	     -3.62454918	      6.27513632	     -1.83069094	      5.29710705	     -0.15931024
      0.84216667	      5.17664133	     -1.64401156	     -2.49160860	     -0.41578898	      1.08263903	      0.34899482	     -0.35688095	      7.01022324	     -1.31059985	     -9.88647870	      1.55150718	     -9.51041551	      1.87952539	     13.16317947	     -3.57508985	     -3.02811302	    -62.35564048	      1.03522689	     -3.69549986	      6.23688594	     -1.88143786	      5.19641106	     -0.05533355
      0.84633333	      5.14880945	     -1.57117337	     -2.56034207	     -0.41084705	      1.08297914	      0.34910412	     -0.70604716	      6.92986937	     -1.19378459	     -9.72615406	      1.61794696	     -9.55490582	      1.87755022	     13.63161956	     -3.43265964	     -2.89013758	    -61.66989002	      1.25442079	     -3.74543234	      6.22152725	     -1.96792188	      5.17943502	     -0.02098456
      0.85050000	      5.20113197	     -1.50972901	     -2.66812742	     -0.40583331	      1.08341746	      0.34954135	     -1.17786036	      6.88951604	     -0.92022974	     -9.50404047	      1.82802108	     -9.76953042	      1.86545550	     13.97103924	     -3.34535819	     -2.85700247	    -60.94262984	      1.90700962	     -3.93709203	      6.14951077	     -2.03200931	      5.01664922	      0.15352578
      0.85466667	      5.21472388	     -1.46320615	     -2.68327448	     -0.40081671	      1.08376214	      0.34976595	     -1.61843251	      6.85810791	     -0.71294326	     -9.24908862	      1.91330540	     -9.84823474	      1.85715269	     14.35835412	     -3.24179885	     -2.70329502	    -60.15672331	      2.18589610	     -4.05060122	      6.10209985	     -2.04571977	      4.93611657	      0.25767502
      0.85883333	      5.22476799	     -1.40431387	     -2.74031215	     -0.39578282	      1.08408530	      0.34999806	     -2.04789251	      6.80578607	     -0.52649016	     -9.01354839	      2.02845113	     -9.96638700	      1.84680199	     14.71471364	     -3.12653129	     -2.60550472	    -59.30392044	      2.52231415	     -4.24445433	      6.04977751	     -2.07954529	      4.84330365	      0.36113684
      0.86300000	      5.16903921	     -1.35419259	     -2.79777361	     -0.39085453	      1.08426384	      0.35008653	     -2.37655354	      6.74921222	     -0.42344857	     -8.83029053	      2.08721004	    -10.01391709	      1.84265303	     15.13669355	     -3.00717287	     -2.48045213	    -58.40070853	      2.69478650	     -4.33991110	      6.02944675	     -2.17517833	      4.84891217	      0.38872402
      0.86716667	      5.20812492	     -1.31120337	     -2.83956691	     -0.38571519	      1.08457969	      0.35039224	     -2.87022568	      6.72167375	     -0.18366066	     -8.53964130	      2.24108056	    -10.15410889	      1.83012591	     15.40651680	     -2.91688914	     -2.40494921	    -57.43041734	      3.06585220	     -4.68677041	      5.97045573	     -2.10920889	      4.69943867	      0.51529626
